ISO-10303-21;
HEADER;
/* Generated by software containing ST-Developer
 * from STEP Tools, Inc. (www.steptools.com) 
 */

FILE_DESCRIPTION(
/* description */ (''),
/* implementation_level */ '2;1');

FILE_NAME(
/* name */ 'VISHAY NTCALUG03A103H.step',
/* time_stamp */ '2026-05-27T17:57:21+02:00',
/* author */ (''),
/* organization */ (''),
/* preprocessor_version */ 'ST-DEVELOPER v20.1',
/* originating_system */ 'Autodesk Translation Framework v15.8.0.0',
/* authorisation */ '');

FILE_SCHEMA (('AUTOMOTIVE_DESIGN { 1 0 10303 214 3 1 1 }'));
ENDSEC;

DATA;
#10=MECHANICAL_DESIGN_GEOMETRIC_PRESENTATION_REPRESENTATION('',(#13,#14,
#15,#16,#17),#753);
#11=SHAPE_REPRESENTATION_RELATIONSHIP('SRR','None',#760,#12);
#12=ADVANCED_BREP_SHAPE_REPRESENTATION('',(#18,#19,#20,#21,#22),#752);
#13=STYLED_ITEM('',(#770),#18);
#14=STYLED_ITEM('',(#771),#19);
#15=STYLED_ITEM('',(#771),#20);
#16=STYLED_ITEM('',(#772),#21);
#17=STYLED_ITEM('',(#772),#22);
#18=MANIFOLD_SOLID_BREP('Body1',#411);
#19=MANIFOLD_SOLID_BREP('Body3',#412);
#20=MANIFOLD_SOLID_BREP('Body4',#413);
#21=MANIFOLD_SOLID_BREP('Body5',#414);
#22=MANIFOLD_SOLID_BREP('Body6',#415);
#23=FACE_BOUND('',#85,.T.);
#24=FACE_BOUND('',#89,.T.);
#25=FACE_BOUND('',#96,.T.);
#26=FACE_BOUND('',#98,.T.);
#27=FACE_BOUND('',#102,.T.);
#28=FACE_BOUND('',#104,.T.);
#29=ELLIPSE('',#433,1.27279223142389,0.900000017881394);
#30=ELLIPSE('',#434,2.40416305603426,1.7);
#31=ELLIPSE('',#438,2.40416305603426,1.7);
#32=ELLIPSE('',#439,1.27279223142389,0.900000017881394);
#33=PLANE('',#432);
#34=PLANE('',#437);
#35=PLANE('',#442);
#36=PLANE('',#444);
#37=PLANE('',#446);
#38=PLANE('',#453);
#39=PLANE('',#457);
#40=PLANE('',#458);
#41=PLANE('',#465);
#42=PLANE('',#466);
#43=PLANE('',#473);
#44=PLANE('',#474);
#45=PLANE('',#478);
#46=PLANE('',#479);
#47=PLANE('',#483);
#48=PLANE('',#484);
#49=FACE_OUTER_BOUND('',#77,.T.);
#50=FACE_OUTER_BOUND('',#78,.T.);
#51=FACE_OUTER_BOUND('',#79,.T.);
#52=FACE_OUTER_BOUND('',#80,.T.);
#53=FACE_OUTER_BOUND('',#81,.T.);
#54=FACE_OUTER_BOUND('',#82,.T.);
#55=FACE_OUTER_BOUND('',#83,.T.);
#56=FACE_OUTER_BOUND('',#84,.T.);
#57=FACE_OUTER_BOUND('',#86,.T.);
#58=FACE_OUTER_BOUND('',#87,.T.);
#59=FACE_OUTER_BOUND('',#88,.T.);
#60=FACE_OUTER_BOUND('',#90,.T.);
#61=FACE_OUTER_BOUND('',#91,.T.);
#62=FACE_OUTER_BOUND('',#92,.T.);
#63=FACE_OUTER_BOUND('',#93,.T.);
#64=FACE_OUTER_BOUND('',#94,.T.);
#65=FACE_OUTER_BOUND('',#95,.T.);
#66=FACE_OUTER_BOUND('',#97,.T.);
#67=FACE_OUTER_BOUND('',#99,.T.);
#68=FACE_OUTER_BOUND('',#100,.T.);
#69=FACE_OUTER_BOUND('',#101,.T.);
#70=FACE_OUTER_BOUND('',#103,.T.);
#71=FACE_OUTER_BOUND('',#105,.T.);
#72=FACE_OUTER_BOUND('',#106,.T.);
#73=FACE_OUTER_BOUND('',#107,.T.);
#74=FACE_OUTER_BOUND('',#108,.T.);
#75=FACE_OUTER_BOUND('',#109,.T.);
#76=FACE_OUTER_BOUND('',#110,.T.);
#77=EDGE_LOOP('',(#267,#268,#269,#270));
#78=EDGE_LOOP('',(#271,#272,#273,#274,#275,#276));
#79=EDGE_LOOP('',(#277,#278));
#80=EDGE_LOOP('',(#279,#280,#281,#282,#283,#284));
#81=EDGE_LOOP('',(#285,#286));
#82=EDGE_LOOP('',(#287,#288,#289));
#83=EDGE_LOOP('',(#290,#291,#292));
#84=EDGE_LOOP('',(#293,#294,#295,#296,#297,#298,#299,#300,#301));
#85=EDGE_LOOP('',(#302));
#86=EDGE_LOOP('',(#303,#304,#305,#306));
#87=EDGE_LOOP('',(#307,#308,#309,#310));
#88=EDGE_LOOP('',(#311,#312));
#89=EDGE_LOOP('',(#313));
#90=EDGE_LOOP('',(#314,#315,#316,#317,#318,#319,#320,#321,#322,#323,#324,
#325));
#91=EDGE_LOOP('',(#326,#327,#328,#329,#330,#331,#332,#333));
#92=EDGE_LOOP('',(#334));
#93=EDGE_LOOP('',(#335,#336,#337,#338));
#94=EDGE_LOOP('',(#339,#340,#341,#342));
#95=EDGE_LOOP('',(#343));
#96=EDGE_LOOP('',(#344));
#97=EDGE_LOOP('',(#345));
#98=EDGE_LOOP('',(#346));
#99=EDGE_LOOP('',(#347,#348,#349,#350));
#100=EDGE_LOOP('',(#351,#352,#353,#354));
#101=EDGE_LOOP('',(#355));
#102=EDGE_LOOP('',(#356));
#103=EDGE_LOOP('',(#357));
#104=EDGE_LOOP('',(#358));
#105=EDGE_LOOP('',(#359,#360,#361,#362));
#106=EDGE_LOOP('',(#363));
#107=EDGE_LOOP('',(#364));
#108=EDGE_LOOP('',(#365,#366,#367,#368));
#109=EDGE_LOOP('',(#369));
#110=EDGE_LOOP('',(#370));
#111=B_SPLINE_CURVE_WITH_KNOTS('',3,(#629,#630,#631,#632,#633,#634,#635,
#636),.UNSPECIFIED.,.F.,.F.,(4,2,2,4),(0.623124630616777,0.662720165827123,
0.728693854717421,0.79466754360772),.UNSPECIFIED.);
#112=B_SPLINE_CURVE_WITH_KNOTS('',3,(#690,#691,#692,#693,#694,#695,#696,
#697),.UNSPECIFIED.,.F.,.F.,(4,2,2,4),(0.79466754360772,0.860641232498019,
0.926614921388317,0.966210456598662),.UNSPECIFIED.);
#113=CIRCLE('',#430,2.75);
#114=CIRCLE('',#431,2.75);
#115=CIRCLE('',#436,0.900000017881394);
#116=CIRCLE('',#441,0.900000017881394);
#117=CIRCLE('',#443,1.7);
#118=CIRCLE('',#445,1.7);
#119=CIRCLE('',#447,2.75);
#120=CIRCLE('',#448,1.1);
#121=CIRCLE('',#450,1.1);
#122=CIRCLE('',#452,2.75);
#123=CIRCLE('',#455,1.7);
#124=CIRCLE('',#456,1.7);
#125=CIRCLE('',#460,0.1);
#126=CIRCLE('',#461,0.1);
#127=CIRCLE('',#463,0.175);
#128=CIRCLE('',#464,0.175);
#129=CIRCLE('',#468,0.0999999999999998);
#130=CIRCLE('',#469,0.0999999999999998);
#131=CIRCLE('',#471,0.175);
#132=CIRCLE('',#472,0.175);
#133=CIRCLE('',#476,0.0999999999999998);
#134=CIRCLE('',#477,0.0999999999999998);
#135=CIRCLE('',#481,0.1);
#136=CIRCLE('',#482,0.1);
#137=LINE('',#625,#159);
#138=LINE('',#641,#160);
#139=LINE('',#643,#161);
#140=LINE('',#647,#162);
#141=LINE('',#650,#163);
#142=LINE('',#658,#164);
#143=LINE('',#662,#165);
#144=LINE('',#664,#166);
#145=LINE('',#665,#167);
#146=LINE('',#670,#168);
#147=LINE('',#675,#169);
#148=LINE('',#678,#170);
#149=LINE('',#679,#171);
#150=LINE('',#680,#172);
#151=LINE('',#686,#173);
#152=LINE('',#702,#174);
#153=LINE('',#710,#175);
#154=LINE('',#716,#176);
#155=LINE('',#724,#177);
#156=LINE('',#730,#178);
#157=LINE('',#738,#179);
#158=LINE('',#746,#180);
#159=VECTOR('',#489,2.75);
#160=VECTOR('',#496,10.);
#161=VECTOR('',#497,10.);
#162=VECTOR('',#500,10.);
#163=VECTOR('',#503,10.);
#164=VECTOR('',#512,10.);
#165=VECTOR('',#515,10.);
#166=VECTOR('',#516,10.);
#167=VECTOR('',#517,10.);
#168=VECTOR('',#524,10.);
#169=VECTOR('',#531,10.);
#170=VECTOR('',#534,10.);
#171=VECTOR('',#535,10.);
#172=VECTOR('',#536,10.);
#173=VECTOR('',#543,1.1);
#174=VECTOR('',#556,1.7);
#175=VECTOR('',#567,0.1);
#176=VECTOR('',#574,0.175);
#177=VECTOR('',#585,0.0999999999999998);
#178=VECTOR('',#592,0.175);
#179=VECTOR('',#603,0.0999999999999998);
#180=VECTOR('',#614,0.1);
#181=VERTEX_POINT('',#623);
#182=VERTEX_POINT('',#624);
#183=VERTEX_POINT('',#626);
#184=VERTEX_POINT('',#628);
#185=VERTEX_POINT('',#639);
#186=VERTEX_POINT('',#640);
#187=VERTEX_POINT('',#642);
#188=VERTEX_POINT('',#644);
#189=VERTEX_POINT('',#646);
#190=VERTEX_POINT('',#648);
#191=VERTEX_POINT('',#654);
#192=VERTEX_POINT('',#655);
#193=VERTEX_POINT('',#657);
#194=VERTEX_POINT('',#659);
#195=VERTEX_POINT('',#661);
#196=VERTEX_POINT('',#663);
#197=VERTEX_POINT('',#669);
#198=VERTEX_POINT('',#673);
#199=VERTEX_POINT('',#677);
#200=VERTEX_POINT('',#682);
#201=VERTEX_POINT('',#685);
#202=VERTEX_POINT('',#701);
#203=VERTEX_POINT('',#707);
#204=VERTEX_POINT('',#709);
#205=VERTEX_POINT('',#713);
#206=VERTEX_POINT('',#715);
#207=VERTEX_POINT('',#721);
#208=VERTEX_POINT('',#723);
#209=VERTEX_POINT('',#727);
#210=VERTEX_POINT('',#729);
#211=VERTEX_POINT('',#735);
#212=VERTEX_POINT('',#737);
#213=VERTEX_POINT('',#743);
#214=VERTEX_POINT('',#745);
#215=EDGE_CURVE('',#181,#182,#137,.T.);
#216=EDGE_CURVE('',#183,#181,#113,.T.);
#217=EDGE_CURVE('',#183,#184,#111,.T.);
#218=EDGE_CURVE('',#184,#182,#114,.T.);
#219=EDGE_CURVE('',#185,#186,#138,.F.);
#220=EDGE_CURVE('',#187,#186,#139,.T.);
#221=EDGE_CURVE('',#187,#188,#29,.T.);
#222=EDGE_CURVE('',#188,#189,#140,.T.);
#223=EDGE_CURVE('',#189,#190,#30,.T.);
#224=EDGE_CURVE('',#190,#185,#141,.T.);
#225=EDGE_CURVE('',#188,#187,#115,.T.);
#226=EDGE_CURVE('',#191,#192,#31,.T.);
#227=EDGE_CURVE('',#192,#193,#142,.T.);
#228=EDGE_CURVE('',#193,#194,#32,.T.);
#229=EDGE_CURVE('',#195,#194,#143,.T.);
#230=EDGE_CURVE('',#196,#195,#144,.T.);
#231=EDGE_CURVE('',#196,#191,#145,.T.);
#232=EDGE_CURVE('',#194,#193,#116,.T.);
#233=EDGE_CURVE('',#197,#196,#146,.T.);
#234=EDGE_CURVE('',#197,#191,#117,.T.);
#235=EDGE_CURVE('',#190,#198,#118,.T.);
#236=EDGE_CURVE('',#185,#198,#147,.T.);
#237=EDGE_CURVE('',#199,#197,#148,.T.);
#238=EDGE_CURVE('',#186,#195,#149,.T.);
#239=EDGE_CURVE('',#198,#183,#150,.T.);
#240=EDGE_CURVE('',#181,#199,#119,.T.);
#241=EDGE_CURVE('',#200,#200,#120,.T.);
#242=EDGE_CURVE('',#200,#201,#151,.T.);
#243=EDGE_CURVE('',#201,#201,#121,.T.);
#244=EDGE_CURVE('',#182,#184,#122,.T.);
#245=EDGE_CURVE('',#184,#199,#112,.T.);
#246=EDGE_CURVE('',#192,#189,#123,.T.);
#247=EDGE_CURVE('',#192,#202,#152,.T.);
#248=EDGE_CURVE('',#202,#202,#124,.T.);
#249=EDGE_CURVE('',#203,#203,#125,.T.);
#250=EDGE_CURVE('',#203,#204,#153,.T.);
#251=EDGE_CURVE('',#204,#204,#126,.T.);
#252=EDGE_CURVE('',#205,#205,#127,.T.);
#253=EDGE_CURVE('',#205,#206,#154,.T.);
#254=EDGE_CURVE('',#206,#206,#128,.T.);
#255=EDGE_CURVE('',#207,#207,#129,.T.);
#256=EDGE_CURVE('',#207,#208,#155,.T.);
#257=EDGE_CURVE('',#208,#208,#130,.T.);
#258=EDGE_CURVE('',#209,#209,#131,.T.);
#259=EDGE_CURVE('',#209,#210,#156,.T.);
#260=EDGE_CURVE('',#210,#210,#132,.T.);
#261=EDGE_CURVE('',#211,#211,#133,.T.);
#262=EDGE_CURVE('',#211,#212,#157,.T.);
#263=EDGE_CURVE('',#212,#212,#134,.T.);
#264=EDGE_CURVE('',#213,#213,#135,.T.);
#265=EDGE_CURVE('',#213,#214,#158,.T.);
#266=EDGE_CURVE('',#214,#214,#136,.T.);
#267=ORIENTED_EDGE('',*,*,#215,.F.);
#268=ORIENTED_EDGE('',*,*,#216,.F.);
#269=ORIENTED_EDGE('',*,*,#217,.T.);
#270=ORIENTED_EDGE('',*,*,#218,.T.);
#271=ORIENTED_EDGE('',*,*,#219,.T.);
#272=ORIENTED_EDGE('',*,*,#220,.F.);
#273=ORIENTED_EDGE('',*,*,#221,.T.);
#274=ORIENTED_EDGE('',*,*,#222,.T.);
#275=ORIENTED_EDGE('',*,*,#223,.T.);
#276=ORIENTED_EDGE('',*,*,#224,.T.);
#277=ORIENTED_EDGE('',*,*,#221,.F.);
#278=ORIENTED_EDGE('',*,*,#225,.F.);
#279=ORIENTED_EDGE('',*,*,#226,.T.);
#280=ORIENTED_EDGE('',*,*,#227,.T.);
#281=ORIENTED_EDGE('',*,*,#228,.T.);
#282=ORIENTED_EDGE('',*,*,#229,.F.);
#283=ORIENTED_EDGE('',*,*,#230,.F.);
#284=ORIENTED_EDGE('',*,*,#231,.T.);
#285=ORIENTED_EDGE('',*,*,#232,.F.);
#286=ORIENTED_EDGE('',*,*,#228,.F.);
#287=ORIENTED_EDGE('',*,*,#231,.F.);
#288=ORIENTED_EDGE('',*,*,#233,.F.);
#289=ORIENTED_EDGE('',*,*,#234,.T.);
#290=ORIENTED_EDGE('',*,*,#224,.F.);
#291=ORIENTED_EDGE('',*,*,#235,.T.);
#292=ORIENTED_EDGE('',*,*,#236,.F.);
#293=ORIENTED_EDGE('',*,*,#237,.T.);
#294=ORIENTED_EDGE('',*,*,#233,.T.);
#295=ORIENTED_EDGE('',*,*,#230,.T.);
#296=ORIENTED_EDGE('',*,*,#238,.F.);
#297=ORIENTED_EDGE('',*,*,#219,.F.);
#298=ORIENTED_EDGE('',*,*,#236,.T.);
#299=ORIENTED_EDGE('',*,*,#239,.T.);
#300=ORIENTED_EDGE('',*,*,#216,.T.);
#301=ORIENTED_EDGE('',*,*,#240,.T.);
#302=ORIENTED_EDGE('',*,*,#241,.T.);
#303=ORIENTED_EDGE('',*,*,#241,.F.);
#304=ORIENTED_EDGE('',*,*,#242,.T.);
#305=ORIENTED_EDGE('',*,*,#243,.T.);
#306=ORIENTED_EDGE('',*,*,#242,.F.);
#307=ORIENTED_EDGE('',*,*,#215,.T.);
#308=ORIENTED_EDGE('',*,*,#244,.T.);
#309=ORIENTED_EDGE('',*,*,#245,.T.);
#310=ORIENTED_EDGE('',*,*,#240,.F.);
#311=ORIENTED_EDGE('',*,*,#218,.F.);
#312=ORIENTED_EDGE('',*,*,#244,.F.);
#313=ORIENTED_EDGE('',*,*,#243,.F.);
#314=ORIENTED_EDGE('',*,*,#226,.F.);
#315=ORIENTED_EDGE('',*,*,#234,.F.);
#316=ORIENTED_EDGE('',*,*,#237,.F.);
#317=ORIENTED_EDGE('',*,*,#245,.F.);
#318=ORIENTED_EDGE('',*,*,#217,.F.);
#319=ORIENTED_EDGE('',*,*,#239,.F.);
#320=ORIENTED_EDGE('',*,*,#235,.F.);
#321=ORIENTED_EDGE('',*,*,#223,.F.);
#322=ORIENTED_EDGE('',*,*,#246,.F.);
#323=ORIENTED_EDGE('',*,*,#247,.T.);
#324=ORIENTED_EDGE('',*,*,#248,.T.);
#325=ORIENTED_EDGE('',*,*,#247,.F.);
#326=ORIENTED_EDGE('',*,*,#246,.T.);
#327=ORIENTED_EDGE('',*,*,#222,.F.);
#328=ORIENTED_EDGE('',*,*,#225,.T.);
#329=ORIENTED_EDGE('',*,*,#220,.T.);
#330=ORIENTED_EDGE('',*,*,#238,.T.);
#331=ORIENTED_EDGE('',*,*,#229,.T.);
#332=ORIENTED_EDGE('',*,*,#232,.T.);
#333=ORIENTED_EDGE('',*,*,#227,.F.);
#334=ORIENTED_EDGE('',*,*,#248,.F.);
#335=ORIENTED_EDGE('',*,*,#249,.F.);
#336=ORIENTED_EDGE('',*,*,#250,.T.);
#337=ORIENTED_EDGE('',*,*,#251,.T.);
#338=ORIENTED_EDGE('',*,*,#250,.F.);
#339=ORIENTED_EDGE('',*,*,#252,.F.);
#340=ORIENTED_EDGE('',*,*,#253,.T.);
#341=ORIENTED_EDGE('',*,*,#254,.T.);
#342=ORIENTED_EDGE('',*,*,#253,.F.);
#343=ORIENTED_EDGE('',*,*,#252,.T.);
#344=ORIENTED_EDGE('',*,*,#249,.T.);
#345=ORIENTED_EDGE('',*,*,#254,.F.);
#346=ORIENTED_EDGE('',*,*,#251,.F.);
#347=ORIENTED_EDGE('',*,*,#255,.F.);
#348=ORIENTED_EDGE('',*,*,#256,.T.);
#349=ORIENTED_EDGE('',*,*,#257,.T.);
#350=ORIENTED_EDGE('',*,*,#256,.F.);
#351=ORIENTED_EDGE('',*,*,#258,.F.);
#352=ORIENTED_EDGE('',*,*,#259,.T.);
#353=ORIENTED_EDGE('',*,*,#260,.T.);
#354=ORIENTED_EDGE('',*,*,#259,.F.);
#355=ORIENTED_EDGE('',*,*,#258,.T.);
#356=ORIENTED_EDGE('',*,*,#255,.T.);
#357=ORIENTED_EDGE('',*,*,#260,.F.);
#358=ORIENTED_EDGE('',*,*,#257,.F.);
#359=ORIENTED_EDGE('',*,*,#261,.F.);
#360=ORIENTED_EDGE('',*,*,#262,.T.);
#361=ORIENTED_EDGE('',*,*,#263,.T.);
#362=ORIENTED_EDGE('',*,*,#262,.F.);
#363=ORIENTED_EDGE('',*,*,#261,.T.);
#364=ORIENTED_EDGE('',*,*,#263,.F.);
#365=ORIENTED_EDGE('',*,*,#264,.F.);
#366=ORIENTED_EDGE('',*,*,#265,.T.);
#367=ORIENTED_EDGE('',*,*,#266,.T.);
#368=ORIENTED_EDGE('',*,*,#265,.F.);
#369=ORIENTED_EDGE('',*,*,#264,.T.);
#370=ORIENTED_EDGE('',*,*,#266,.F.);
#371=CYLINDRICAL_SURFACE('',#429,2.75);
#372=CYLINDRICAL_SURFACE('',#435,0.900000017881394);
#373=CYLINDRICAL_SURFACE('',#440,0.900000017881394);
#374=CYLINDRICAL_SURFACE('',#449,1.1);
#375=CYLINDRICAL_SURFACE('',#451,2.75);
#376=CYLINDRICAL_SURFACE('',#454,1.7);
#377=CYLINDRICAL_SURFACE('',#459,0.1);
#378=CYLINDRICAL_SURFACE('',#462,0.175);
#379=CYLINDRICAL_SURFACE('',#467,0.0999999999999998);
#380=CYLINDRICAL_SURFACE('',#470,0.175);
#381=CYLINDRICAL_SURFACE('',#475,0.0999999999999998);
#382=CYLINDRICAL_SURFACE('',#480,0.1);
#383=ADVANCED_FACE('',(#49),#371,.T.);
#384=ADVANCED_FACE('',(#50),#33,.T.);
#385=ADVANCED_FACE('',(#51),#372,.F.);
#386=ADVANCED_FACE('',(#52),#34,.T.);
#387=ADVANCED_FACE('',(#53),#373,.F.);
#388=ADVANCED_FACE('',(#54),#35,.T.);
#389=ADVANCED_FACE('',(#55),#36,.T.);
#390=ADVANCED_FACE('',(#56,#23),#37,.T.);
#391=ADVANCED_FACE('',(#57),#374,.F.);
#392=ADVANCED_FACE('',(#58),#375,.T.);
#393=ADVANCED_FACE('',(#59,#24),#38,.F.);
#394=ADVANCED_FACE('',(#60),#376,.T.);
#395=ADVANCED_FACE('',(#61),#39,.T.);
#396=ADVANCED_FACE('',(#62),#40,.F.);
#397=ADVANCED_FACE('',(#63),#377,.F.);
#398=ADVANCED_FACE('',(#64),#378,.T.);
#399=ADVANCED_FACE('',(#65,#25),#41,.T.);
#400=ADVANCED_FACE('',(#66,#26),#42,.F.);
#401=ADVANCED_FACE('',(#67),#379,.F.);
#402=ADVANCED_FACE('',(#68),#380,.T.);
#403=ADVANCED_FACE('',(#69,#27),#43,.T.);
#404=ADVANCED_FACE('',(#70,#28),#44,.F.);
#405=ADVANCED_FACE('',(#71),#381,.T.);
#406=ADVANCED_FACE('',(#72),#45,.T.);
#407=ADVANCED_FACE('',(#73),#46,.F.);
#408=ADVANCED_FACE('',(#74),#382,.T.);
#409=ADVANCED_FACE('',(#75),#47,.T.);
#410=ADVANCED_FACE('',(#76),#48,.F.);
#411=CLOSED_SHELL('',(#383,#384,#385,#386,#387,#388,#389,#390,#391,#392,
#393,#394,#395,#396));
#412=CLOSED_SHELL('',(#397,#398,#399,#400));
#413=CLOSED_SHELL('',(#401,#402,#403,#404));
#414=CLOSED_SHELL('',(#405,#406,#407));
#415=CLOSED_SHELL('',(#408,#409,#410));
#416=DERIVED_UNIT_ELEMENT(#418,1.);
#417=DERIVED_UNIT_ELEMENT(#755,-3.);
#418=(
MASS_UNIT()
NAMED_UNIT(*)
SI_UNIT(.KILO.,.GRAM.)
);
#419=DERIVED_UNIT((#416,#417));
#420=MEASURE_REPRESENTATION_ITEM('density measure',
POSITIVE_RATIO_MEASURE(7850.),#419);
#421=PROPERTY_DEFINITION_REPRESENTATION(#426,#423);
#422=PROPERTY_DEFINITION_REPRESENTATION(#427,#424);
#423=REPRESENTATION('material name',(#425),#752);
#424=REPRESENTATION('density',(#420),#752);
#425=DESCRIPTIVE_REPRESENTATION_ITEM('Steel','Steel');
#426=PROPERTY_DEFINITION('material property','material name',#762);
#427=PROPERTY_DEFINITION('material property','density of part',#762);
#428=AXIS2_PLACEMENT_3D('',#621,#485,#486);
#429=AXIS2_PLACEMENT_3D('',#622,#487,#488);
#430=AXIS2_PLACEMENT_3D('',#627,#490,#491);
#431=AXIS2_PLACEMENT_3D('',#637,#492,#493);
#432=AXIS2_PLACEMENT_3D('',#638,#494,#495);
#433=AXIS2_PLACEMENT_3D('',#645,#498,#499);
#434=AXIS2_PLACEMENT_3D('',#649,#501,#502);
#435=AXIS2_PLACEMENT_3D('',#651,#504,#505);
#436=AXIS2_PLACEMENT_3D('',#652,#506,#507);
#437=AXIS2_PLACEMENT_3D('',#653,#508,#509);
#438=AXIS2_PLACEMENT_3D('',#656,#510,#511);
#439=AXIS2_PLACEMENT_3D('',#660,#513,#514);
#440=AXIS2_PLACEMENT_3D('',#666,#518,#519);
#441=AXIS2_PLACEMENT_3D('',#667,#520,#521);
#442=AXIS2_PLACEMENT_3D('',#668,#522,#523);
#443=AXIS2_PLACEMENT_3D('',#671,#525,#526);
#444=AXIS2_PLACEMENT_3D('',#672,#527,#528);
#445=AXIS2_PLACEMENT_3D('',#674,#529,#530);
#446=AXIS2_PLACEMENT_3D('',#676,#532,#533);
#447=AXIS2_PLACEMENT_3D('',#681,#537,#538);
#448=AXIS2_PLACEMENT_3D('',#683,#539,#540);
#449=AXIS2_PLACEMENT_3D('',#684,#541,#542);
#450=AXIS2_PLACEMENT_3D('',#687,#544,#545);
#451=AXIS2_PLACEMENT_3D('',#688,#546,#547);
#452=AXIS2_PLACEMENT_3D('',#689,#548,#549);
#453=AXIS2_PLACEMENT_3D('',#698,#550,#551);
#454=AXIS2_PLACEMENT_3D('',#699,#552,#553);
#455=AXIS2_PLACEMENT_3D('',#700,#554,#555);
#456=AXIS2_PLACEMENT_3D('',#703,#557,#558);
#457=AXIS2_PLACEMENT_3D('',#704,#559,#560);
#458=AXIS2_PLACEMENT_3D('',#705,#561,#562);
#459=AXIS2_PLACEMENT_3D('',#706,#563,#564);
#460=AXIS2_PLACEMENT_3D('',#708,#565,#566);
#461=AXIS2_PLACEMENT_3D('',#711,#568,#569);
#462=AXIS2_PLACEMENT_3D('',#712,#570,#571);
#463=AXIS2_PLACEMENT_3D('',#714,#572,#573);
#464=AXIS2_PLACEMENT_3D('',#717,#575,#576);
#465=AXIS2_PLACEMENT_3D('',#718,#577,#578);
#466=AXIS2_PLACEMENT_3D('',#719,#579,#580);
#467=AXIS2_PLACEMENT_3D('',#720,#581,#582);
#468=AXIS2_PLACEMENT_3D('',#722,#583,#584);
#469=AXIS2_PLACEMENT_3D('',#725,#586,#587);
#470=AXIS2_PLACEMENT_3D('',#726,#588,#589);
#471=AXIS2_PLACEMENT_3D('',#728,#590,#591);
#472=AXIS2_PLACEMENT_3D('',#731,#593,#594);
#473=AXIS2_PLACEMENT_3D('',#732,#595,#596);
#474=AXIS2_PLACEMENT_3D('',#733,#597,#598);
#475=AXIS2_PLACEMENT_3D('',#734,#599,#600);
#476=AXIS2_PLACEMENT_3D('',#736,#601,#602);
#477=AXIS2_PLACEMENT_3D('',#739,#604,#605);
#478=AXIS2_PLACEMENT_3D('',#740,#606,#607);
#479=AXIS2_PLACEMENT_3D('',#741,#608,#609);
#480=AXIS2_PLACEMENT_3D('',#742,#610,#611);
#481=AXIS2_PLACEMENT_3D('',#744,#612,#613);
#482=AXIS2_PLACEMENT_3D('',#747,#615,#616);
#483=AXIS2_PLACEMENT_3D('',#748,#617,#618);
#484=AXIS2_PLACEMENT_3D('',#749,#619,#620);
#485=DIRECTION('axis',(0.,0.,1.));
#486=DIRECTION('refdir',(1.,0.,0.));
#487=DIRECTION('center_axis',(0.,0.,1.));
#488=DIRECTION('ref_axis',(1.,0.,0.));
#489=DIRECTION('',(0.,0.,-1.));
#490=DIRECTION('center_axis',(0.,0.,1.));
#491=DIRECTION('ref_axis',(1.,0.,0.));
#492=DIRECTION('center_axis',(0.,0.,1.));
#493=DIRECTION('ref_axis',(1.,0.,0.));
#494=DIRECTION('center_axis',(-0.372677986526225,0.707106781186548,0.600925218607739));
#495=DIRECTION('ref_axis',(0.849836594127081,0.,0.527046262943285));
#496=DIRECTION('',(0.884651741947191,0.466252394599535,0.));
#497=DIRECTION('',(-0.849836594127081,0.,-0.527046262943285));
#498=DIRECTION('center_axis',(0.372677986526225,-0.707106781186548,-0.600925218607739));
#499=DIRECTION('ref_axis',(-0.372677986526226,-0.707106781186547,0.600925218607739));
#500=DIRECTION('',(0.849836594127081,0.,0.527046262943285));
#501=DIRECTION('center_axis',(-0.372677986526225,0.707106781186548,0.600925218607739));
#502=DIRECTION('ref_axis',(0.372677986526226,0.707106781186547,-0.600925218607739));
#503=DIRECTION('',(-0.849836594127081,0.,-0.527046262943285));
#504=DIRECTION('center_axis',(0.,1.,0.));
#505=DIRECTION('ref_axis',(-1.,0.,0.));
#506=DIRECTION('center_axis',(0.,1.,0.));
#507=DIRECTION('ref_axis',(-1.,0.,0.));
#508=DIRECTION('center_axis',(0.372677986526225,0.707106781186548,0.600925218607739));
#509=DIRECTION('ref_axis',(0.849836594127081,0.,-0.527046262943285));
#510=DIRECTION('center_axis',(0.372677986526225,0.707106781186548,0.600925218607739));
#511=DIRECTION('ref_axis',(0.372677986526226,-0.707106781186547,0.600925218607739));
#512=DIRECTION('',(0.849836594127081,0.,-0.527046262943285));
#513=DIRECTION('center_axis',(-0.372677986526225,-0.707106781186548,-0.600925218607739));
#514=DIRECTION('ref_axis',(-0.372677986526226,0.707106781186547,-0.600925218607739));
#515=DIRECTION('',(-0.849836594127081,0.,0.527046262943285));
#516=DIRECTION('',(0.884651741947191,-0.466252394599535,0.));
#517=DIRECTION('',(-0.849836594127081,0.,0.527046262943285));
#518=DIRECTION('center_axis',(0.,1.,0.));
#519=DIRECTION('ref_axis',(-1.,0.,0.));
#520=DIRECTION('center_axis',(0.,1.,0.));
#521=DIRECTION('ref_axis',(-1.,0.,0.));
#522=DIRECTION('center_axis',(0.,1.,0.));
#523=DIRECTION('ref_axis',(-1.,0.,0.));
#524=DIRECTION('',(1.,0.,0.));
#525=DIRECTION('center_axis',(0.,1.,0.));
#526=DIRECTION('ref_axis',(-1.,0.,0.));
#527=DIRECTION('center_axis',(0.,1.,0.));
#528=DIRECTION('ref_axis',(-1.,0.,0.));
#529=DIRECTION('center_axis',(0.,1.,0.));
#530=DIRECTION('ref_axis',(-1.,0.,0.));
#531=DIRECTION('',(1.,0.,0.));
#532=DIRECTION('center_axis',(0.,0.,1.));
#533=DIRECTION('ref_axis',(1.,0.,0.));
#534=DIRECTION('',(0.,1.,0.));
#535=DIRECTION('',(-1.,0.,0.));
#536=DIRECTION('',(0.,-1.,0.));
#537=DIRECTION('center_axis',(0.,0.,1.));
#538=DIRECTION('ref_axis',(1.,0.,0.));
#539=DIRECTION('center_axis',(0.,0.,-1.));
#540=DIRECTION('ref_axis',(1.,0.,0.));
#541=DIRECTION('center_axis',(0.,0.,1.));
#542=DIRECTION('ref_axis',(1.,0.,0.));
#543=DIRECTION('',(0.,0.,-1.));
#544=DIRECTION('center_axis',(0.,0.,-1.));
#545=DIRECTION('ref_axis',(1.,0.,0.));
#546=DIRECTION('center_axis',(0.,0.,1.));
#547=DIRECTION('ref_axis',(1.,0.,0.));
#548=DIRECTION('center_axis',(0.,0.,1.));
#549=DIRECTION('ref_axis',(1.,0.,0.));
#550=DIRECTION('center_axis',(0.,0.,1.));
#551=DIRECTION('ref_axis',(1.,0.,0.));
#552=DIRECTION('center_axis',(0.,1.,0.));
#553=DIRECTION('ref_axis',(1.,0.,0.));
#554=DIRECTION('center_axis',(0.,1.,0.));
#555=DIRECTION('ref_axis',(1.,0.,0.));
#556=DIRECTION('',(0.,-1.,0.));
#557=DIRECTION('center_axis',(0.,1.,0.));
#558=DIRECTION('ref_axis',(1.,0.,0.));
#559=DIRECTION('center_axis',(0.,1.,0.));
#560=DIRECTION('ref_axis',(1.,0.,0.));
#561=DIRECTION('center_axis',(0.,1.,0.));
#562=DIRECTION('ref_axis',(1.,0.,0.));
#563=DIRECTION('center_axis',(0.,-1.,0.));
#564=DIRECTION('ref_axis',(1.,0.,0.));
#565=DIRECTION('center_axis',(0.,1.,0.));
#566=DIRECTION('ref_axis',(1.,0.,0.));
#567=DIRECTION('',(0.,1.,0.));
#568=DIRECTION('center_axis',(0.,1.,0.));
#569=DIRECTION('ref_axis',(1.,0.,0.));
#570=DIRECTION('center_axis',(0.,-1.,0.));
#571=DIRECTION('ref_axis',(1.,0.,0.));
#572=DIRECTION('center_axis',(0.,-1.,0.));
#573=DIRECTION('ref_axis',(1.,0.,0.));
#574=DIRECTION('',(0.,1.,0.));
#575=DIRECTION('center_axis',(0.,-1.,0.));
#576=DIRECTION('ref_axis',(1.,0.,0.));
#577=DIRECTION('center_axis',(0.,-1.,0.));
#578=DIRECTION('ref_axis',(1.,0.,0.));
#579=DIRECTION('center_axis',(0.,-1.,0.));
#580=DIRECTION('ref_axis',(1.,0.,0.));
#581=DIRECTION('center_axis',(0.,-1.,0.));
#582=DIRECTION('ref_axis',(1.,0.,0.));
#583=DIRECTION('center_axis',(0.,1.,0.));
#584=DIRECTION('ref_axis',(1.,0.,0.));
#585=DIRECTION('',(0.,1.,0.));
#586=DIRECTION('center_axis',(0.,1.,0.));
#587=DIRECTION('ref_axis',(1.,0.,0.));
#588=DIRECTION('center_axis',(0.,-1.,0.));
#589=DIRECTION('ref_axis',(1.,0.,0.));
#590=DIRECTION('center_axis',(0.,-1.,0.));
#591=DIRECTION('ref_axis',(1.,0.,0.));
#592=DIRECTION('',(0.,1.,0.));
#593=DIRECTION('center_axis',(0.,-1.,0.));
#594=DIRECTION('ref_axis',(1.,0.,0.));
#595=DIRECTION('center_axis',(0.,-1.,0.));
#596=DIRECTION('ref_axis',(1.,0.,0.));
#597=DIRECTION('center_axis',(0.,-1.,0.));
#598=DIRECTION('ref_axis',(1.,0.,0.));
#599=DIRECTION('center_axis',(0.,-1.,0.));
#600=DIRECTION('ref_axis',(1.,0.,0.));
#601=DIRECTION('center_axis',(0.,-1.,0.));
#602=DIRECTION('ref_axis',(1.,0.,0.));
#603=DIRECTION('',(0.,1.,0.));
#604=DIRECTION('center_axis',(0.,-1.,0.));
#605=DIRECTION('ref_axis',(1.,0.,0.));
#606=DIRECTION('center_axis',(0.,-1.,0.));
#607=DIRECTION('ref_axis',(1.,0.,0.));
#608=DIRECTION('center_axis',(0.,-1.,0.));
#609=DIRECTION('ref_axis',(1.,0.,0.));
#610=DIRECTION('center_axis',(0.,-1.,0.));
#611=DIRECTION('ref_axis',(1.,0.,0.));
#612=DIRECTION('center_axis',(0.,-1.,0.));
#613=DIRECTION('ref_axis',(1.,0.,0.));
#614=DIRECTION('',(0.,1.,0.));
#615=DIRECTION('center_axis',(0.,-1.,0.));
#616=DIRECTION('ref_axis',(1.,0.,0.));
#617=DIRECTION('center_axis',(0.,-1.,0.));
#618=DIRECTION('ref_axis',(1.,0.,0.));
#619=DIRECTION('center_axis',(0.,-1.,0.));
#620=DIRECTION('ref_axis',(1.,0.,0.));
#621=CARTESIAN_POINT('',(0.,0.,0.));
#622=CARTESIAN_POINT('Origin',(0.,78.75,-1.7));
#623=CARTESIAN_POINT('',(-2.75,78.75,-0.899999999999998));
#624=CARTESIAN_POINT('',(-2.75,78.75,-1.7));
#625=CARTESIAN_POINT('',(-2.75,78.75,-1.7));
#626=CARTESIAN_POINT('',(1.4422205101856,76.4085261052064,-0.9));
#627=CARTESIAN_POINT('Origin',(0.,78.75,-0.9));
#628=CARTESIAN_POINT('',(0.,76.,-1.7));
#629=CARTESIAN_POINT('Ctrl Pts',(1.4422205101856,76.4085261052064,-0.899999999999998));
#630=CARTESIAN_POINT('Ctrl Pts',(1.37230661722809,76.3654629514405,-1.0120347226336));
#631=CARTESIAN_POINT('Ctrl Pts',(1.29034254012199,76.3195378640883,-1.11382051591227));
#632=CARTESIAN_POINT('Ctrl Pts',(1.05502190316762,76.2051692259327,-1.34914115286664));
#633=CARTESIAN_POINT('Ctrl Pts',(0.867866202223847,76.1316962910719,-1.4792113094858));
#634=CARTESIAN_POINT('Ctrl Pts',(0.450487445368892,76.0286460738471,-1.65478672176423));
#635=CARTESIAN_POINT('Ctrl Pts',(0.219912296300995,76.,-1.7));
#636=CARTESIAN_POINT('Ctrl Pts',(-2.77555756156289E-16,76.,-1.7));
#637=CARTESIAN_POINT('Origin',(0.,78.75,-1.7));
#638=CARTESIAN_POINT('Origin',(0.764950885906988,76.30005,-0.932843076476164));
#639=CARTESIAN_POINT('',(1.38702388272935,76.6,-0.9));
#640=CARTESIAN_POINT('',(0.248603895365612,76.,-0.9));
#641=CARTESIAN_POINT('',(0.982401510002674,76.3867452905512,-0.9));
#642=CARTESIAN_POINT('',(0.399056855821461,76.,-0.806693038279369));
#643=CARTESIAN_POINT('',(0.539490084825621,76.,-0.719600049990571));
#644=CARTESIAN_POINT('',(0.544444439133365,76.0001,-0.716645159673366));
#645=CARTESIAN_POINT('Origin',(0.,75.10412131128,-2.77555756156289E-16));
#646=CARTESIAN_POINT('',(1.69999996628736,76.0000999999898,-7.32142942671956E-8));
#647=CARTESIAN_POINT('',(0.60686335933715,76.0001,-0.677934590067746));
#648=CARTESIAN_POINT('',(1.47479327528642,76.6,-0.8455677354121));
#649=CARTESIAN_POINT('Origin',(0.,75.10412131128,-2.77555756156289E-16));
#650=CARTESIAN_POINT('',(0.923038412476827,76.6,-1.18775156288458));
#651=CARTESIAN_POINT('Origin',(0.,76.,-2.77555756156289E-16));
#652=CARTESIAN_POINT('Origin',(0.,76.,-2.77555756156289E-16));
#653=CARTESIAN_POINT('Origin',(-0.764950885906988,76.30005,-0.932843076476164));
#654=CARTESIAN_POINT('',(-1.47479327528642,76.6,-0.8455677354121));
#655=CARTESIAN_POINT('',(-1.69999997752408,76.0000999999972,-6.30265021964065E-8));
#656=CARTESIAN_POINT('Origin',(0.,75.10412131128,-2.77555756156289E-16));
#657=CARTESIAN_POINT('',(-0.544444439133365,76.0001,-0.716645159673366));
#658=CARTESIAN_POINT('',(-0.60686335933715,76.0001,-0.677934590067746));
#659=CARTESIAN_POINT('',(-0.399056855821461,76.,-0.806693038279369));
#660=CARTESIAN_POINT('Origin',(0.,75.10412131128,-2.77555756156289E-16));
#661=CARTESIAN_POINT('',(-0.248603895365612,76.,-0.9));
#662=CARTESIAN_POINT('',(-0.539490084825621,76.,-0.719600049990571));
#663=CARTESIAN_POINT('',(-1.38702388272935,76.6,-0.9));
#664=CARTESIAN_POINT('',(-0.982401510002674,76.3867452905512,-0.9));
#665=CARTESIAN_POINT('',(-0.923038412476827,76.6,-1.18775156288458));
#666=CARTESIAN_POINT('Origin',(0.,76.,-2.77555756156289E-16));
#667=CARTESIAN_POINT('Origin',(0.,76.,-2.77555756156289E-16));
#668=CARTESIAN_POINT('Origin',(0.,76.6,-0.850000018998981));
#669=CARTESIAN_POINT('',(-1.4422205101856,76.6,-0.9));
#670=CARTESIAN_POINT('',(0.,76.6,-0.9));
#671=CARTESIAN_POINT('Origin',(0.,76.6,-2.77555756156289E-16));
#672=CARTESIAN_POINT('Origin',(0.,76.6,-0.850000018998981));
#673=CARTESIAN_POINT('',(1.4422205101856,76.6,-0.9));
#674=CARTESIAN_POINT('Origin',(0.,76.6,-2.77555756156289E-16));
#675=CARTESIAN_POINT('',(0.,76.6,-0.9));
#676=CARTESIAN_POINT('Origin',(0.,78.75,-0.9));
#677=CARTESIAN_POINT('',(-1.4422205101856,76.4085261052064,-0.9));
#678=CARTESIAN_POINT('',(-1.4422205101856,76.,-0.9));
#679=CARTESIAN_POINT('',(0.,76.,-0.9));
#680=CARTESIAN_POINT('',(1.4422205101856,76.,-0.9));
#681=CARTESIAN_POINT('Origin',(0.,78.75,-0.9));
#682=CARTESIAN_POINT('',(-1.1,78.75,-0.9));
#683=CARTESIAN_POINT('Origin',(0.,78.75,-0.9));
#684=CARTESIAN_POINT('Origin',(0.,78.75,-1.7));
#685=CARTESIAN_POINT('',(-1.1,78.75,-1.7));
#686=CARTESIAN_POINT('',(-1.1,78.75,-1.7));
#687=CARTESIAN_POINT('Origin',(0.,78.75,-1.7));
#688=CARTESIAN_POINT('Origin',(0.,78.75,-1.7));
#689=CARTESIAN_POINT('Origin',(0.,78.75,-1.7));
#690=CARTESIAN_POINT('Ctrl Pts',(6.93889390390723E-16,76.,-1.7));
#691=CARTESIAN_POINT('Ctrl Pts',(-0.219912296300995,76.,-1.7));
#692=CARTESIAN_POINT('Ctrl Pts',(-0.450487445368892,76.0286460738471,-1.65478672176423));
#693=CARTESIAN_POINT('Ctrl Pts',(-0.867866202223847,76.1316962910719,-1.4792113094858));
#694=CARTESIAN_POINT('Ctrl Pts',(-1.05502190316762,76.2051692259327,-1.34914115286664));
#695=CARTESIAN_POINT('Ctrl Pts',(-1.29034254012199,76.3195378640883,-1.11382051591227));
#696=CARTESIAN_POINT('Ctrl Pts',(-1.37230661722809,76.3654629514405,-1.0120347226336));
#697=CARTESIAN_POINT('Ctrl Pts',(-1.4422205101856,76.4085261052064,-0.9));
#698=CARTESIAN_POINT('Origin',(0.,78.75,-1.7));
#699=CARTESIAN_POINT('Origin',(0.,70.,-2.77555756156289E-16));
#700=CARTESIAN_POINT('Origin',(0.,76.,-2.77555756156289E-16));
#701=CARTESIAN_POINT('',(-1.7,70.,0.));
#702=CARTESIAN_POINT('',(-1.7,70.,-6.93658003012391E-17));
#703=CARTESIAN_POINT('Origin',(0.,70.,-2.77555756156289E-16));
#704=CARTESIAN_POINT('Origin',(0.,76.,-2.77555756156289E-16));
#705=CARTESIAN_POINT('Origin',(0.,70.,-2.77555756156289E-16));
#706=CARTESIAN_POINT('Origin',(0.75,70.,-2.77555756156289E-16));
#707=CARTESIAN_POINT('',(0.65,3.99999999999999,-2.77555756156289E-16));
#708=CARTESIAN_POINT('Origin',(0.75,3.99999999999999,-2.77555756156289E-16));
#709=CARTESIAN_POINT('',(0.65,70.,-2.77555756156289E-16));
#710=CARTESIAN_POINT('',(0.65,70.,-2.89802224147763E-16));
#711=CARTESIAN_POINT('Origin',(0.75,70.,-2.77555756156289E-16));
#712=CARTESIAN_POINT('Origin',(0.75,70.,-2.77555756156289E-16));
#713=CARTESIAN_POINT('',(0.575,3.99999999999999,-2.77555756156289E-16));
#714=CARTESIAN_POINT('Origin',(0.75,3.99999999999999,-2.77555756156289E-16));
#715=CARTESIAN_POINT('',(0.575,70.,-2.77555756156289E-16));
#716=CARTESIAN_POINT('',(0.575,70.,-2.98987075141368E-16));
#717=CARTESIAN_POINT('Origin',(0.75,70.,-2.77555756156289E-16));
#718=CARTESIAN_POINT('Origin',(0.75,3.99999999999999,-2.77555756156289E-16));
#719=CARTESIAN_POINT('Origin',(0.75,70.,-2.77555756156289E-16));
#720=CARTESIAN_POINT('Origin',(-0.75,70.,-2.77555756156289E-16));
#721=CARTESIAN_POINT('',(-0.85,3.99999999999999,-2.77555756156289E-16));
#722=CARTESIAN_POINT('Origin',(-0.75,3.99999999999999,-2.77555756156289E-16));
#723=CARTESIAN_POINT('',(-0.85,70.,-2.77555756156289E-16));
#724=CARTESIAN_POINT('',(-0.85,70.,-2.89802224147763E-16));
#725=CARTESIAN_POINT('Origin',(-0.75,70.,-2.77555756156289E-16));
#726=CARTESIAN_POINT('Origin',(-0.75,70.,-2.77555756156289E-16));
#727=CARTESIAN_POINT('',(-0.925,3.99999999999999,-2.77555756156289E-16));
#728=CARTESIAN_POINT('Origin',(-0.75,3.99999999999999,-2.77555756156289E-16));
#729=CARTESIAN_POINT('',(-0.925,70.,-2.77555756156289E-16));
#730=CARTESIAN_POINT('',(-0.925,70.,-2.98987075141368E-16));
#731=CARTESIAN_POINT('Origin',(-0.75,70.,-2.77555756156289E-16));
#732=CARTESIAN_POINT('Origin',(-0.75,3.99999999999999,-2.77555756156289E-16));
#733=CARTESIAN_POINT('Origin',(-0.75,70.,-2.77555756156289E-16));
#734=CARTESIAN_POINT('Origin',(-0.75,70.,-2.77555756156289E-16));
#735=CARTESIAN_POINT('',(-0.85,0.,-2.77555756156289E-16));
#736=CARTESIAN_POINT('Origin',(-0.75,0.,-2.77555756156289E-16));
#737=CARTESIAN_POINT('',(-0.85,70.,-2.77555756156289E-16));
#738=CARTESIAN_POINT('',(-0.85,70.,-2.89802224147763E-16));
#739=CARTESIAN_POINT('Origin',(-0.75,70.,-2.77555756156289E-16));
#740=CARTESIAN_POINT('Origin',(-0.75,0.,-2.77555756156289E-16));
#741=CARTESIAN_POINT('Origin',(-0.75,70.,-2.77555756156289E-16));
#742=CARTESIAN_POINT('Origin',(0.75,70.,-2.77555756156289E-16));
#743=CARTESIAN_POINT('',(0.65,0.,-2.77555756156289E-16));
#744=CARTESIAN_POINT('Origin',(0.75,0.,-2.77555756156289E-16));
#745=CARTESIAN_POINT('',(0.65,70.,-2.77555756156289E-16));
#746=CARTESIAN_POINT('',(0.65,70.,-2.89802224147763E-16));
#747=CARTESIAN_POINT('Origin',(0.75,70.,-2.77555756156289E-16));
#748=CARTESIAN_POINT('Origin',(0.75,0.,-2.77555756156289E-16));
#749=CARTESIAN_POINT('Origin',(0.75,70.,-2.77555756156289E-16));
#750=UNCERTAINTY_MEASURE_WITH_UNIT(LENGTH_MEASURE(0.01),#754,
'DISTANCE_ACCURACY_VALUE',
'Maximum model space distance between geometric entities at asserted c
onnectivities');
#751=UNCERTAINTY_MEASURE_WITH_UNIT(LENGTH_MEASURE(0.01),#754,
'DISTANCE_ACCURACY_VALUE',
'Maximum model space distance between geometric entities at asserted c
onnectivities');
#752=(
GEOMETRIC_REPRESENTATION_CONTEXT(3)
GLOBAL_UNCERTAINTY_ASSIGNED_CONTEXT((#750))
GLOBAL_UNIT_ASSIGNED_CONTEXT((#754,#756,#757))
REPRESENTATION_CONTEXT('','3D')
);
#753=(
GEOMETRIC_REPRESENTATION_CONTEXT(3)
GLOBAL_UNCERTAINTY_ASSIGNED_CONTEXT((#751))
GLOBAL_UNIT_ASSIGNED_CONTEXT((#754,#756,#757))
REPRESENTATION_CONTEXT('','3D')
);
#754=(
LENGTH_UNIT()
NAMED_UNIT(*)
SI_UNIT(.MILLI.,.METRE.)
);
#755=(
LENGTH_UNIT()
NAMED_UNIT(*)
SI_UNIT($,.METRE.)
);
#756=(
NAMED_UNIT(*)
PLANE_ANGLE_UNIT()
SI_UNIT($,.RADIAN.)
);
#757=(
NAMED_UNIT(*)
SI_UNIT($,.STERADIAN.)
SOLID_ANGLE_UNIT()
);
#758=SHAPE_DEFINITION_REPRESENTATION(#759,#760);
#759=PRODUCT_DEFINITION_SHAPE('',$,#762);
#760=SHAPE_REPRESENTATION('',(#428),#752);
#761=PRODUCT_DEFINITION_CONTEXT('part definition',#766,'design');
#762=PRODUCT_DEFINITION('VISHAY NTCALUG03A103H',
'VISHAY NTCALUG03A103H v0',#763,#761);
#763=PRODUCT_DEFINITION_FORMATION('',$,#768);
#764=PRODUCT_RELATED_PRODUCT_CATEGORY('VISHAY NTCALUG03A103H v0',
'VISHAY NTCALUG03A103H v0',(#768));
#765=APPLICATION_PROTOCOL_DEFINITION('international standard',
'automotive_design',2009,#766);
#766=APPLICATION_CONTEXT(
'Core Data for Automotive Mechanical Design Process');
#767=PRODUCT_CONTEXT('part definition',#766,'mechanical');
#768=PRODUCT('VISHAY NTCALUG03A103H','VISHAY NTCALUG03A103H v0',$,(#767));
#769=PRESENTATION_STYLE_ASSIGNMENT((#773));
#770=PRESENTATION_STYLE_ASSIGNMENT((#774));
#771=PRESENTATION_STYLE_ASSIGNMENT((#775));
#772=PRESENTATION_STYLE_ASSIGNMENT((#776));
#773=SURFACE_STYLE_USAGE(.BOTH.,#777);
#774=SURFACE_STYLE_USAGE(.BOTH.,#778);
#775=SURFACE_STYLE_USAGE(.BOTH.,#779);
#776=SURFACE_STYLE_USAGE(.BOTH.,#780);
#777=SURFACE_SIDE_STYLE('',(#781));
#778=SURFACE_SIDE_STYLE('',(#782));
#779=SURFACE_SIDE_STYLE('',(#783));
#780=SURFACE_SIDE_STYLE('',(#784));
#781=SURFACE_STYLE_FILL_AREA(#785);
#782=SURFACE_STYLE_FILL_AREA(#786);
#783=SURFACE_STYLE_FILL_AREA(#787);
#784=SURFACE_STYLE_FILL_AREA(#788);
#785=FILL_AREA_STYLE('Steel - Satin',(#789));
#786=FILL_AREA_STYLE('Aluminum - Polished',(#790));
#787=FILL_AREA_STYLE('Rubber - Soft',(#791));
#788=FILL_AREA_STYLE('Silver - Polished',(#792));
#789=FILL_AREA_STYLE_COLOUR('Steel - Satin',#793);
#790=FILL_AREA_STYLE_COLOUR('Aluminum - Polished',#794);
#791=FILL_AREA_STYLE_COLOUR('Rubber - Soft',#795);
#792=FILL_AREA_STYLE_COLOUR('Silver - Polished',#796);
#793=COLOUR_RGB('Steel - Satin',0.627450980392157,0.627450980392157,0.627450980392157);
#794=COLOUR_RGB('Aluminum - Polished',0.96078431372549,0.96078431372549,
0.964705882352941);
#795=COLOUR_RGB('Rubber - Soft',0.152941176470588,0.152941176470588,0.152941176470588);
#796=COLOUR_RGB('Silver - Polished',0.984313725490196,0.980392156862745,
0.96078431372549);
ENDSEC;
END-ISO-10303-21;
